<svg xmlns="http://www.w3.org/2000/svg"  viewBox="0 0 100 100" width="100px" height="100px"><circle cx="50" cy="49" r="29" fill="#4b4dff"/><path fill="#edf7f5" d="M50,78.5c-16.267,0-29.5-13.233-29.5-29.5S33.733,19.5,50,19.5S79.5,32.733,79.5,49 S66.267,78.5,50,78.5z M50,20.5c-15.715,0-28.5,12.785-28.5,28.5S34.285,77.5,50,77.5S78.5,64.715,78.5,49S65.715,20.5,50,20.5z"/><path fill="#4343bf" d="M50,81c-17.645,0-32-14.355-32-32s14.355-32,32-32s32,14.355,32,32S67.645,81,50,81z M50,23 c-14.337,0-26,11.663-26,26s11.663,26,26,26s26-11.663,26-26S64.337,23,50,23z"/><polygon fill="#edf7f5" points="48.586,62.914 34.086,48.414 36.914,45.586 48.414,57.086 63.005,40.671 65.995,43.329"/><g><path fill="#ff8405" d="M50,85c-19.851,0-36-16.149-36-36h10c0,14.337,11.663,26,26,26s26-11.663,26-26h10 C86,68.851,69.851,85,50,85z"/></g></svg>