<svg xmlns="http://www.w3.org/2000/svg" xmlns:xlink="http://www.w3.org/1999/xlink" width="500" zoomAndPan="magnify" viewBox="0 0 375 374.999991" height="500" preserveAspectRatio="xMidYMid meet" version="1.0"><defs><clipPath id="f8e4fb7d1e"><path d="M 13.34375 52.3125 L 361 52.3125 L 361 323 L 13.34375 323 Z M 13.34375 52.3125 " clip-rule="nonzero"/></clipPath></defs><g clip-path="url(#f8e4fb7d1e)"><path fill="#000000" d="M 227.742188 206.851562 C 232.058594 209.785156 232.753906 214.035156 232.445312 218.75 C 232.136719 222.691406 230.671875 226.320312 228.515625 229.566406 C 227.898438 230.417969 227.203125 231.191406 226.433594 231.886719 C 225.507812 232.8125 224.351562 233.199219 223.039062 233.042969 C 222.269531 232.96875 221.730469 233.277344 221.191406 233.738281 C 217.566406 236.90625 213.480469 238.992188 208.546875 238.53125 C 206.851562 238.375 205.152344 237.601562 203.457031 237.140625 C 202.609375 236.90625 201.839844 236.675781 201.066406 236.445312 C 199.988281 238.839844 199.679688 239.070312 197.523438 238.992188 C 195.210938 238.917969 194.902344 238.683594 194.050781 236.597656 C 192.972656 236.90625 191.894531 237.21875 190.816406 237.527344 C 190.816406 239.921875 189.964844 240.769531 187.578125 240.539062 C 186.882812 240.460938 186.265625 240.460938 185.570312 240.386719 C 183.335938 240.074219 182.71875 239.148438 183.257812 236.984375 C 182.71875 236.210938 182.101562 236.136719 181.253906 236.445312 C 180.40625 236.753906 179.558594 236.984375 178.710938 236.289062 C 178.09375 235.824219 177.167969 236.445312 177.09375 237.292969 C 176.859375 239.148438 176.707031 239.378906 175.320312 239.613281 C 174.316406 239.765625 173.546875 239.378906 173.390625 238.375 C 173.238281 237.449219 172.773438 237.371094 172.003906 237.449219 C 169.074219 237.679688 166.222656 237.914062 163.292969 238.222656 C 161.597656 238.375 159.976562 238.296875 158.742188 237.0625 C 155.96875 238.761719 153.347656 238.066406 150.957031 236.445312 C 150.417969 236.058594 150.1875 235.128906 150.03125 234.433594 C 149.878906 233.894531 150.109375 233.277344 150.109375 232.734375 C 149.03125 232.117188 148.027344 231.574219 147.023438 230.957031 C 146.949219 230.878906 146.792969 230.878906 146.714844 230.878906 C 144.558594 231.652344 142.628906 230.417969 140.550781 230.183594 C 140.164062 230.109375 139.777344 230.03125 139.46875 230.109375 C 137.929688 230.261719 137.773438 230.726562 138.234375 232.195312 C 140.394531 239.148438 142.476562 246.101562 144.480469 253.058594 C 145.019531 254.988281 143.863281 256.535156 142.324219 257.617188 C 139.855469 259.316406 137.386719 261.015625 134.765625 262.484375 C 116.417969 273.300781 98.070312 284.042969 79.722656 294.78125 C 64.765625 303.589844 49.808594 312.320312 34.777344 321.054688 C 34.542969 321.207031 34.234375 321.363281 34.003906 321.515625 C 31.613281 323.0625 29.535156 322.058594 28.917969 319.277344 C 27.527344 312.785156 26.21875 306.21875 24.597656 299.726562 C 21.59375 287.671875 18.355469 275.695312 15.195312 263.644531 C 14.421875 260.785156 13.496094 258.003906 13.652344 254.910156 C 13.730469 253.367188 14.113281 252.207031 15.65625 251.28125 C 25.0625 245.5625 34.390625 239.613281 43.796875 233.816406 C 50.578125 229.644531 57.441406 225.625 64.304688 221.609375 C 64.457031 221.53125 64.535156 221.453125 64.765625 221.300781 C 64.535156 221.066406 64.378906 220.835938 64.226562 220.679688 C 55.589844 212.257812 50.425781 202.058594 48.5 190.160156 C 45.492188 171.460938 49.65625 154.152344 59.214844 138.003906 C 63.761719 130.355469 69.621094 123.785156 76.871094 118.6875 C 82.265625 114.898438 88.125 111.808594 94.753906 110.726562 C 98.917969 110.109375 103.082031 110.265625 107.246094 110.882812 C 110.789062 111.421875 114.261719 112.042969 117.574219 113.742188 C 123.203125 116.675781 127.675781 120.773438 131.375 125.871094 C 134.84375 130.585938 137.386719 135.683594 139.160156 141.25 C 139.316406 141.636719 139.394531 142.023438 139.699219 142.097656 C 141.164062 142.484375 142.707031 142.71875 144.171875 143.335938 C 147.796875 144.726562 150.800781 147.121094 153.269531 150.058594 C 153.5 150.289062 153.730469 150.597656 153.964844 150.832031 C 154.039062 150.90625 154.117188 150.90625 154.117188 150.90625 C 154.65625 150.058594 155.121094 149.128906 155.738281 148.359375 C 156.046875 147.972656 156.816406 147.664062 157.277344 147.816406 C 160.285156 148.742188 163.214844 149.75 166.144531 150.832031 C 166.761719 151.0625 167.222656 151.214844 167.761719 150.675781 C 168.457031 150.058594 169.152344 150.136719 169.921875 150.597656 C 171 151.292969 172.15625 151.835938 173.160156 152.605469 C 173.777344 153.070312 174.164062 153.765625 174.703125 154.308594 C 174.855469 154.460938 174.933594 154.769531 175.164062 154.925781 C 176.550781 155.699219 177.785156 156.703125 179.636719 156.472656 C 180.175781 156.394531 180.945312 156.78125 181.410156 157.167969 C 184.492188 159.792969 187.5 162.421875 190.507812 165.125 C 190.890625 165.433594 191.277344 165.898438 191.355469 166.285156 C 191.585938 167.984375 192.894531 168.988281 193.898438 170.148438 C 194.4375 170.84375 195.054688 171.460938 195.59375 172.15625 C 196.289062 173.082031 197.058594 173.855469 198.292969 174.164062 C 198.910156 174.320312 199.449219 175.09375 200.066406 175.480469 C 200.375 175.710938 201.066406 176.019531 201.222656 175.867188 C 202.378906 174.859375 203.6875 175.015625 205.152344 175.09375 C 204.847656 174.242188 204.613281 173.46875 204.382812 172.773438 C 201.222656 162.574219 198.0625 152.296875 194.902344 142.097656 C 194.59375 141.171875 194.4375 140.246094 194.4375 139.316406 C 194.359375 138.3125 195.054688 137.695312 195.824219 137.152344 C 201.222656 133.597656 206.464844 129.96875 211.9375 126.566406 C 237.84375 110.265625 263.898438 94.039062 289.804688 77.734375 C 302.445312 69.773438 315.011719 61.738281 327.578125 53.703125 C 329.738281 52.3125 331.433594 52.851562 332.359375 55.25 C 340.839844 76.421875 349.242188 97.59375 357.722656 118.761719 C 358.648438 121.003906 359.652344 123.246094 360.578125 125.484375 C 361.191406 126.875 360.34375 129.425781 359.035156 130.199219 C 352.710938 133.832031 346.390625 137.460938 340.070312 141.171875 C 309.386719 159.097656 278.703125 177.023438 248.019531 194.949219 C 241.621094 198.660156 235.222656 202.445312 228.820312 206.15625 C 228.515625 206.386719 228.128906 206.617188 227.742188 206.851562 Z M 215.640625 152.453125 C 219.109375 150.289062 222.421875 148.203125 225.816406 146.117188 C 226.585938 145.652344 226.816406 145.265625 226.507812 144.339844 C 224.660156 138.621094 222.886719 132.902344 221.113281 127.1875 C 221.035156 126.800781 221.035156 126.414062 220.957031 126.027344 C 221.113281 125.949219 221.265625 125.949219 221.5 125.871094 C 223.734375 132.054688 225.96875 138.234375 228.207031 144.496094 C 228.667969 144.261719 228.976562 144.03125 229.363281 143.796875 C 232.601562 141.710938 235.835938 139.703125 239.152344 137.695312 C 239.921875 137.230469 240 136.84375 239.769531 135.996094 C 237.84375 129.96875 235.992188 124.019531 234.140625 117.992188 C 233.988281 117.605469 233.988281 117.140625 233.910156 116.753906 C 234.066406 116.675781 234.21875 116.675781 234.371094 116.601562 C 237.070312 122.9375 239.230469 129.503906 241.621094 136.070312 C 245.550781 133.597656 249.40625 131.203125 253.261719 128.808594 C 253.492188 128.652344 253.648438 127.957031 253.492188 127.648438 C 252.644531 124.867188 251.71875 122.085938 250.792969 119.304688 C 249.792969 116.058594 248.789062 112.8125 247.789062 109.492188 C 247.710938 109.183594 247.863281 108.796875 247.941406 108.488281 C 248.25 108.71875 248.558594 108.875 248.789062 109.183594 C 248.945312 109.414062 249.019531 109.722656 249.097656 110.03125 C 250.410156 113.820312 251.796875 117.683594 253.105469 121.46875 C 253.800781 123.476562 254.496094 125.484375 255.1875 127.574219 C 259.042969 125.175781 262.742188 122.859375 266.445312 120.617188 C 267.214844 120.15625 267.292969 119.769531 267.0625 118.917969 C 265.289062 113.507812 263.515625 108.023438 261.820312 102.539062 C 261.664062 102.152344 261.664062 101.765625 261.585938 101.378906 C 261.742188 101.300781 261.894531 101.300781 262.050781 101.222656 C 264.363281 107.171875 266.136719 113.355469 268.371094 119.382812 C 272.304688 116.910156 276.082031 114.589844 279.859375 112.273438 C 280.707031 111.730469 280.9375 111.347656 280.550781 110.339844 C 278.546875 104.625 276.542969 98.828125 274.617188 93.03125 C 274.460938 92.648438 274.460938 92.183594 274.386719 91.796875 C 274.539062 91.71875 274.769531 91.71875 274.925781 91.640625 C 277.46875 97.976562 279.628906 104.390625 282.09375 110.804688 C 282.558594 110.574219 282.941406 110.339844 283.25 110.109375 C 286.875 107.867188 290.574219 105.550781 294.273438 103.308594 C 295.046875 102.847656 295.199219 102.460938 294.890625 101.53125 C 292.808594 95.660156 290.804688 89.789062 288.800781 83.914062 C 288.648438 83.527344 288.648438 83.066406 288.570312 82.601562 C 288.722656 82.523438 288.878906 82.523438 289.109375 82.449219 C 291.808594 88.785156 294.199219 95.273438 296.742188 101.765625 C 297.203125 101.457031 297.589844 101.300781 297.976562 101.070312 C 300.90625 99.292969 303.757812 97.515625 306.6875 95.738281 C 307.765625 95.121094 309.386719 94.578125 309.617188 93.730469 C 309.925781 92.722656 309 91.410156 308.613281 90.175781 C 306.917969 85.304688 305.144531 80.515625 303.449219 75.726562 C 303.296875 75.414062 303.449219 74.953125 303.449219 74.644531 C 303.757812 74.953125 304.066406 75.183594 304.296875 75.492188 C 304.527344 75.800781 304.605469 76.265625 304.761719 76.652344 C 306.378906 80.902344 308.074219 85.152344 309.695312 89.402344 C 310.15625 90.636719 310.621094 91.796875 311.160156 93.109375 C 315.320312 90.5625 319.332031 88.164062 323.417969 85.617188 C 323.1875 85.074219 323.03125 84.609375 322.878906 84.148438 C 320.949219 79.046875 318.945312 74.023438 317.019531 68.925781 C 316.863281 68.460938 316.785156 68 316.710938 67.535156 C 316.863281 67.457031 317.09375 67.457031 317.25 67.378906 C 319.792969 73.175781 322.027344 79.046875 324.496094 84.921875 C 329.042969 82.371094 333.207031 79.589844 337.910156 77.503906 C 337.757812 77.964844 337.449219 78.351562 337.140625 78.507812 C 333.4375 80.980469 329.816406 83.375 326.039062 85.769531 C 325.265625 86.234375 325.113281 86.621094 325.5 87.46875 C 328.503906 94.886719 331.433594 102.304688 334.363281 109.644531 C 334.519531 109.953125 334.671875 110.265625 334.828125 110.652344 C 338.988281 108.332031 343 106.015625 347.085938 103.773438 C 347.160156 103.851562 347.238281 104.003906 347.316406 104.082031 C 346.777344 104.46875 346.238281 104.933594 345.621094 105.242188 C 342.460938 107.25 339.296875 109.183594 336.058594 111.113281 C 335.519531 111.421875 335.210938 111.730469 335.519531 112.425781 C 338.449219 119.382812 341.304688 126.414062 344.230469 133.367188 C 344.386719 133.753906 344.617188 134.140625 344.847656 134.605469 C 345.3125 134.292969 345.695312 134.0625 346.082031 133.832031 C 348.933594 132.132812 351.710938 130.355469 354.5625 128.808594 C 356.566406 127.726562 357.492188 126.335938 357.105469 124.09375 C 357.03125 123.707031 356.953125 123.324219 356.796875 122.9375 C 356.183594 121.390625 355.488281 119.921875 354.871094 118.378906 C 348.011719 101.457031 341.148438 84.535156 334.289062 67.613281 C 332.824219 63.980469 331.359375 60.347656 329.816406 56.71875 C 329.121094 55.015625 329.121094 55.015625 327.65625 55.945312 C 326.5 56.71875 325.34375 57.488281 324.1875 58.183594 C 306.996094 69.003906 289.804688 79.742188 272.613281 90.636719 C 250.640625 104.625 228.746094 118.6875 206.773438 132.671875 C 203.457031 134.835938 199.988281 136.765625 196.519531 138.855469 C 198.601562 145.808594 200.683594 152.761719 202.839844 159.871094 C 203.304688 159.640625 203.6875 159.40625 203.996094 159.175781 C 206.542969 157.628906 209.007812 156.085938 211.554688 154.539062 C 212.476562 154 213.789062 153.535156 214.097656 152.683594 C 214.40625 151.835938 213.710938 150.675781 213.402344 149.59375 C 211.9375 144.496094 210.398438 139.394531 208.933594 134.292969 C 208.777344 133.910156 208.855469 133.445312 208.777344 133.058594 C 208.933594 133.058594 209.085938 132.980469 209.238281 132.980469 C 211.554688 139.625 213.480469 145.960938 215.640625 152.453125 Z M 50.734375 179.496094 C 51.042969 182.277344 51.273438 186.605469 52.042969 190.855469 C 53.585938 199.664062 57.054688 207.546875 63.070312 214.191406 C 67.308594 218.828125 72.320312 222.226562 78.410156 223.847656 C 86.582031 226.089844 94.445312 224.699219 101.925781 221.066406 C 111.5625 216.355469 118.960938 209.089844 124.589844 200.050781 C 133.535156 185.832031 137.386719 170.226562 136 153.457031 C 135.460938 146.269531 133.84375 139.316406 130.21875 133.058594 C 123.046875 120.464844 112.871094 112.738281 97.609375 113.894531 C 92.828125 114.28125 88.125 115.363281 83.808594 117.527344 C 77.949219 120.539062 72.859375 124.558594 68.542969 129.503906 C 56.671875 143.414062 51.195312 159.792969 50.734375 179.496094 Z M 29.839844 267.582031 C 32.617188 265.960938 35.238281 264.339844 37.859375 262.871094 C 38.554688 262.484375 38.707031 262.019531 38.554688 261.246094 C 37.398438 256.226562 36.316406 251.203125 35.238281 246.257812 C 35.160156 245.871094 35.238281 245.484375 35.238281 245.175781 C 35.390625 245.175781 35.546875 245.097656 35.625 245.097656 C 37.242188 250.507812 38.320312 256.148438 39.785156 261.710938 C 42.5625 260.011719 45.261719 258.386719 47.957031 256.84375 C 48.730469 256.457031 48.808594 255.992188 48.574219 255.21875 C 47.417969 250.199219 46.339844 245.175781 45.261719 240.074219 C 45.183594 239.613281 45.183594 239.148438 45.183594 238.683594 C 45.335938 238.683594 45.570312 238.609375 45.722656 238.609375 C 47.109375 244.25 48.5 249.8125 49.886719 255.53125 C 50.195312 255.375 50.503906 255.21875 50.734375 255.066406 C 53.355469 253.519531 55.976562 251.898438 58.597656 250.351562 C 59.292969 249.964844 59.367188 249.578125 59.214844 248.808594 C 57.980469 243.398438 56.902344 237.914062 55.746094 232.425781 C 55.667969 232.039062 55.667969 231.574219 55.667969 231.191406 C 55.824219 231.191406 55.976562 231.113281 56.132812 231.113281 C 57.75 236.984375 59.292969 242.855469 60.910156 248.882812 C 63.839844 247.105469 66.617188 245.40625 69.46875 243.785156 C 70.238281 243.320312 70.394531 242.855469 70.238281 242.007812 C 68.929688 236.675781 67.695312 231.265625 66.460938 225.933594 C 66.382812 225.625 66.308594 225.238281 66.308594 224.929688 C 66.308594 224.699219 66.539062 224.542969 66.617188 224.3125 C 66.769531 224.46875 67 224.542969 67.078125 224.699219 C 67.234375 224.929688 67.308594 225.238281 67.386719 225.550781 C 68.3125 228.949219 69.3125 232.347656 70.238281 235.671875 C 70.855469 237.757812 71.394531 239.921875 71.933594 242.085938 C 72.167969 242.007812 72.242188 242.007812 72.320312 242.007812 C 75.25 240.230469 78.257812 238.53125 81.1875 236.753906 C 81.496094 236.597656 81.648438 235.902344 81.570312 235.59375 C 81.261719 234.046875 80.800781 232.425781 80.492188 230.878906 C 80.339844 230.261719 80.03125 229.953125 79.414062 229.800781 C 74.710938 228.5625 70.394531 226.398438 66.617188 223.308594 C 66.074219 222.84375 65.769531 222.84375 65.152344 223.230469 C 61.066406 226.011719 56.980469 228.792969 52.816406 231.421875 C 41.328125 238.683594 29.839844 245.949219 18.199219 253.132812 C 16.425781 254.214844 16.195312 255.453125 16.351562 257.230469 C 16.351562 257.382812 16.351562 257.539062 16.425781 257.691406 C 17.273438 261.015625 18.046875 264.339844 18.894531 267.738281 C 19.355469 269.515625 19.742188 271.292969 20.28125 273.148438 C 22.902344 271.601562 25.371094 270.132812 27.835938 268.664062 C 28.070312 268.511719 28.144531 267.890625 28.070312 267.507812 C 27.066406 262.636719 25.988281 257.847656 24.984375 252.980469 C 24.90625 252.59375 24.984375 252.207031 24.984375 251.820312 C 25.140625 251.820312 25.292969 251.742188 25.523438 251.742188 C 27.375 256.84375 28.453125 262.097656 29.839844 267.582031 Z M 102.617188 252.515625 C 103.003906 252.285156 103.234375 252.207031 103.542969 252.050781 C 106.242188 250.507812 108.863281 248.882812 111.640625 247.417969 C 112.410156 247.03125 112.488281 246.566406 112.253906 245.792969 C 110.714844 240.152344 109.171875 234.511719 107.628906 228.871094 C 107.398438 228.175781 107.246094 227.480469 107.089844 226.707031 C 106.859375 226.785156 106.703125 226.785156 106.628906 226.863281 C 102.386719 228.792969 98.070312 230.183594 93.445312 230.648438 C 93.136719 230.648438 92.90625 230.804688 92.597656 230.957031 C 89.976562 232.65625 87.355469 234.433594 84.734375 236.136719 C 84.117188 236.519531 83.960938 236.90625 84.117188 237.679688 C 86.121094 244.402344 88.125 251.125 90.128906 257.769531 C 90.285156 258.3125 90.4375 258.851562 90.59375 259.46875 C 91.054688 259.238281 91.363281 259.082031 91.671875 258.929688 C 94.523438 257.308594 97.375 255.605469 100.230469 253.984375 C 101.078125 253.519531 101.230469 253.058594 101 252.128906 C 99.074219 245.40625 97.222656 238.683594 95.292969 231.886719 C 95.21875 231.574219 95.21875 231.265625 95.140625 230.878906 C 95.292969 230.878906 95.371094 230.804688 95.527344 230.804688 C 97.839844 238.066406 100.230469 245.253906 102.617188 252.515625 Z M 140.164062 144.417969 C 140.472656 146.039062 140.78125 147.429688 141.089844 148.820312 C 141.164062 149.054688 141.472656 149.285156 141.707031 149.4375 C 143.09375 150.289062 144.710938 150.832031 145.945312 151.835938 C 149.414062 154.617188 151.496094 158.324219 152.882812 162.496094 C 155.121094 169.144531 155.195312 175.867188 153.964844 182.664062 C 152.035156 193.558594 147.332031 203.0625 139.238281 210.714844 C 133.609375 216.121094 127.058594 219.289062 119.117188 219.214844 C 117.496094 219.214844 116.804688 220.21875 115.648438 221.144531 C 120.273438 222.457031 124.667969 222.613281 129.0625 221.609375 C 136.617188 219.832031 142.628906 215.660156 147.488281 209.710938 C 156.351562 198.738281 160.207031 186.140625 159.050781 172 C 158.511719 165.433594 156.585938 159.328125 152.652344 153.921875 C 149.492188 149.59375 145.25 146.582031 140.164062 144.417969 Z M 319.640625 119.769531 C 316.632812 111.730469 313.703125 103.773438 310.695312 95.738281 C 306.226562 98.597656 301.90625 101.300781 297.589844 104.003906 C 300.597656 111.886719 303.449219 119.691406 306.457031 127.496094 C 310.925781 124.945312 315.246094 122.394531 319.640625 119.769531 Z M 305.144531 130.046875 C 304.761719 130.277344 304.375 130.429688 304.066406 130.664062 C 300.367188 132.902344 296.742188 135.144531 292.964844 137.308594 C 292.195312 137.773438 291.960938 138.15625 292.347656 139.085938 C 294.890625 145.960938 297.4375 152.917969 299.980469 159.871094 C 300.210938 160.410156 300.441406 160.953125 300.675781 161.570312 C 301.136719 161.261719 301.523438 161.03125 301.90625 160.875 C 305.53125 158.710938 309.078125 156.546875 312.699219 154.539062 C 313.703125 154 313.78125 153.535156 313.394531 152.53125 C 310.695312 145.34375 308.074219 138.15625 305.453125 130.894531 C 305.375 130.507812 305.300781 130.277344 305.144531 130.046875 Z M 320.179688 121.003906 C 319.792969 121.234375 319.484375 121.390625 319.175781 121.546875 C 315.398438 123.785156 311.699219 126.105469 307.921875 128.269531 C 307.148438 128.730469 307.074219 129.117188 307.382812 129.96875 C 310.003906 137 312.625 143.953125 315.246094 150.984375 C 315.398438 151.449219 315.628906 151.910156 315.863281 152.453125 C 316.246094 152.222656 316.476562 152.144531 316.710938 151.988281 C 320.257812 149.824219 323.800781 147.664062 327.425781 145.574219 C 328.503906 144.957031 328.582031 144.417969 328.195312 143.335938 C 326.039062 137.308594 323.878906 131.28125 321.796875 125.253906 C 321.179688 123.863281 320.71875 122.472656 320.179688 121.003906 Z M 296.125 104.933594 C 291.808594 107.636719 287.722656 110.1875 283.558594 112.738281 C 282.867188 113.125 283.171875 113.585938 283.328125 114.050781 C 285.332031 119.613281 287.335938 125.175781 289.339844 130.742188 C 290.035156 132.59375 290.652344 134.371094 291.34375 136.304688 C 291.730469 136.070312 292.117188 135.917969 292.425781 135.6875 C 296.203125 133.523438 299.902344 131.28125 303.679688 129.117188 C 304.527344 128.652344 304.683594 128.269531 304.296875 127.339844 C 302.371094 122.164062 300.441406 116.988281 298.59375 111.730469 C 297.746094 109.644531 296.972656 107.328125 296.125 104.933594 Z M 290.652344 138.855469 C 290.421875 138.929688 290.265625 139.007812 290.1875 139.085938 C 286.257812 141.402344 282.324219 143.796875 278.316406 146.117188 C 277.621094 146.503906 277.777344 146.96875 278.007812 147.507812 C 279.9375 153.070312 281.863281 158.632812 283.789062 164.199219 C 284.484375 166.207031 285.253906 168.214844 286.027344 170.226562 C 286.488281 169.992188 286.796875 169.839844 287.105469 169.605469 C 290.652344 167.519531 294.199219 165.355469 297.746094 163.347656 C 298.746094 162.808594 298.902344 162.265625 298.515625 161.261719 C 296.203125 154.695312 293.96875 148.125 291.652344 141.558594 C 291.269531 140.554688 290.960938 139.703125 290.652344 138.855469 Z M 324.035156 87.238281 C 320.179688 89.710938 316.476562 92.027344 312.699219 94.347656 C 311.929688 94.808594 311.851562 95.195312 312.160156 95.96875 C 314.9375 103.308594 317.710938 110.652344 320.488281 117.992188 C 320.5625 118.300781 320.71875 118.53125 320.949219 118.917969 C 325.035156 116.523438 329.121094 114.203125 333.128906 111.808594 C 333.363281 111.65625 333.363281 110.960938 333.207031 110.574219 C 331.589844 106.402344 329.96875 102.226562 328.351562 97.976562 C 326.964844 94.578125 325.5 90.945312 324.035156 87.238281 Z M 333.902344 112.738281 C 333.746094 112.8125 333.59375 112.8125 333.4375 112.890625 C 329.585938 115.210938 325.730469 117.527344 321.875 119.84375 C 321.257812 120.230469 321.335938 120.617188 321.566406 121.160156 C 323.800781 126.800781 325.960938 132.441406 328.195312 138.082031 C 328.890625 139.859375 329.660156 141.636719 330.433594 143.566406 C 330.742188 143.414062 331.050781 143.257812 331.28125 143.101562 C 334.519531 141.09375 337.757812 139.085938 341.070312 137.152344 C 342.765625 136.148438 342.84375 136.070312 342.152344 134.21875 C 339.53125 127.261719 336.910156 120.308594 334.210938 113.277344 C 334.210938 113.125 334.054688 112.96875 333.902344 112.738281 Z M 281.863281 113.894531 C 281.632812 113.972656 281.476562 114.050781 281.324219 114.128906 C 277.546875 116.523438 273.691406 118.917969 269.914062 121.234375 C 269.21875 121.699219 269.296875 122.085938 269.527344 122.703125 C 271.839844 129.425781 274.078125 136.148438 276.390625 142.949219 C 276.621094 143.566406 276.851562 144.109375 277.082031 144.804688 C 281.476562 142.175781 285.792969 139.625 290.035156 137.078125 C 287.335938 129.347656 284.636719 121.699219 281.863281 113.894531 Z M 276.390625 147.277344 C 276.082031 147.429688 275.925781 147.429688 275.851562 147.507812 C 272.226562 149.671875 268.601562 151.835938 264.902344 153.921875 C 264.207031 154.308594 264.363281 154.769531 264.515625 155.3125 C 266.289062 160.566406 268.0625 165.820312 269.914062 170.996094 C 270.761719 173.316406 271.609375 175.710938 272.457031 178.105469 C 272.84375 177.875 273.152344 177.71875 273.460938 177.566406 C 276.621094 175.710938 279.703125 173.777344 282.941406 172 C 283.714844 171.539062 283.867188 171.152344 283.636719 170.300781 C 282.171875 165.664062 280.785156 161.03125 279.394531 156.316406 C 278.394531 153.378906 277.390625 150.367188 276.390625 147.277344 Z M 263.667969 152.761719 C 264.054688 152.53125 264.363281 152.453125 264.59375 152.296875 C 268.0625 150.289062 271.457031 148.203125 274.925781 146.195312 C 275.617188 145.808594 275.773438 145.421875 275.542969 144.570312 C 273.152344 137.460938 270.839844 130.355469 268.527344 123.246094 C 268.449219 123.011719 268.292969 122.703125 268.140625 122.394531 C 264.207031 124.789062 260.355469 127.1875 256.574219 129.582031 C 256.34375 129.734375 256.269531 130.355469 256.34375 130.664062 C 257.5 134.21875 258.734375 137.695312 259.890625 141.171875 C 261.125 145.035156 262.433594 148.820312 263.667969 152.761719 Z M 254.496094 130.816406 C 250.640625 133.214844 246.9375 135.53125 243.238281 137.695312 C 242.46875 138.15625 242.390625 138.621094 242.621094 139.394531 C 244.472656 144.726562 246.324219 149.980469 248.171875 155.3125 C 248.789062 157.089844 249.40625 158.945312 250.023438 160.71875 C 250.253906 160.644531 250.332031 160.644531 250.410156 160.644531 C 254.109375 158.480469 257.734375 156.316406 261.433594 154.152344 C 262.050781 153.765625 261.894531 153.378906 261.742188 152.839844 C 260.355469 148.589844 258.890625 144.417969 257.5 140.167969 C 256.574219 137.078125 255.574219 134.0625 254.496094 130.816406 Z M 128.058594 238.066406 C 128.136719 238.222656 128.214844 238.296875 128.292969 238.453125 C 127.597656 238.917969 126.980469 239.378906 126.285156 239.765625 C 125.59375 240.152344 125.363281 240.539062 125.671875 241.390625 C 127.597656 247.570312 129.523438 253.753906 131.453125 259.933594 C 131.605469 260.320312 131.683594 260.707031 131.835938 261.09375 C 134.84375 259.546875 137.695312 258.003906 140.550781 256.457031 C 142.015625 255.683594 142.707031 253.828125 142.246094 252.207031 C 140.394531 245.792969 137.386719 239.84375 135.921875 233.199219 C 135.460938 233.894531 135.152344 234.746094 134.613281 235.363281 C 134.148438 235.902344 133.535156 236.519531 132.917969 236.675781 C 130.605469 237.140625 127.984375 235.902344 126.75 233.894531 C 125.128906 231.191406 124.207031 228.175781 123.511719 225.085938 C 122.585938 225.085938 121.660156 225.085938 120.582031 225.085938 C 122.125 229.953125 123.589844 234.746094 125.128906 239.613281 C 126.210938 238.992188 127.132812 238.53125 128.058594 238.066406 Z M 207.234375 226.941406 C 208.546875 227.710938 209.855469 228.484375 211.167969 229.179688 C 212.015625 229.644531 212.324219 230.183594 211.554688 230.878906 C 210.242188 232.117188 208.933594 233.277344 207.542969 234.433594 C 206.386719 235.363281 205 235.441406 203.613281 235.128906 C 202.378906 234.820312 201.144531 234.359375 199.757812 233.894531 C 198.523438 234.589844 197.058594 235.363281 195.671875 236.136719 C 195.75 237.527344 196.519531 237.988281 197.753906 237.757812 C 198.0625 237.679688 198.371094 237.835938 198.679688 237.679688 C 199.0625 237.527344 199.449219 237.292969 199.601562 236.984375 C 200.21875 235.441406 200.683594 235.128906 202.300781 235.515625 C 203.921875 235.902344 205.460938 236.519531 207.082031 236.753906 C 208.546875 236.984375 210.089844 237.371094 211.476562 236.984375 C 214.328125 236.289062 217.027344 235.054688 219.03125 232.8125 C 220.882812 230.726562 222.578125 228.484375 224.195312 226.167969 C 225.890625 223.847656 226.816406 221.144531 227.355469 218.285156 C 227.972656 214.65625 228.050781 211.023438 226.894531 207.390625 C 224.96875 208.472656 223.039062 209.632812 221.113281 210.714844 C 220.957031 210.789062 220.804688 211.023438 220.648438 211.175781 C 220.035156 212.414062 218.953125 212.878906 217.71875 212.335938 C 217.027344 212.105469 216.488281 211.640625 215.714844 211.253906 C 214.175781 217.28125 210.9375 222.148438 207.234375 226.941406 Z M 201.375 178.105469 C 201.453125 178.261719 201.53125 178.414062 201.609375 178.570312 C 204.691406 184.90625 205.460938 191.550781 204.847656 198.582031 C 204.539062 202.214844 203.074219 205.535156 202.300781 209.089844 C 201.839844 211.253906 200.453125 213.1875 199.527344 215.195312 C 198.445312 217.589844 196.75 218.519531 194.207031 217.746094 C 194.128906 217.746094 194.050781 217.746094 193.898438 217.824219 C 193.746094 218.132812 193.589844 218.519531 193.359375 218.902344 C 193.746094 219.058594 194.050781 219.136719 194.285156 219.289062 C 195.824219 219.910156 196.210938 220.835938 195.285156 222.226562 C 194.746094 223 194.050781 223.773438 193.511719 224.542969 C 192.511719 225.78125 191.277344 225.859375 189.890625 225.550781 C 189.582031 225.472656 189.195312 225.238281 188.886719 225.164062 C 189.273438 225.550781 189.660156 225.859375 190.121094 226.089844 C 191.816406 227.171875 191.972656 228.484375 190.582031 230.03125 C 189.503906 231.191406 188.5 232.347656 187.5 233.351562 C 187.886719 233.199219 188.578125 233.042969 189.195312 232.8125 C 193.28125 231.191406 196.75 228.640625 199.527344 225.316406 C 204.539062 219.445312 207.542969 212.492188 209.472656 204.996094 C 210.320312 201.828125 210.472656 198.582031 209.855469 195.335938 C 208.933594 190.082031 207.621094 184.984375 205.230469 180.113281 C 204.613281 178.957031 203.84375 177.875 203.226562 176.714844 C 202.53125 177.179688 201.992188 177.640625 201.375 178.105469 Z M 153.730469 226.707031 C 154.964844 227.09375 156.121094 227.867188 157.125 226.476562 C 157.355469 226.246094 157.742188 226.011719 158.125 226.011719 C 158.667969 226.011719 159.128906 226.167969 159.667969 226.246094 C 159.515625 226.707031 159.4375 227.25 159.207031 227.710938 C 159.128906 227.867188 158.820312 227.945312 158.433594 228.175781 C 159.824219 228.5625 160.902344 228.792969 161.980469 229.257812 C 163.601562 229.875 165.066406 230.03125 166.761719 229.566406 C 169.074219 228.871094 170.847656 227.480469 172.699219 226.246094 C 171.308594 225.316406 169.921875 224.3125 168.535156 223.464844 C 167.761719 223 167.839844 222.535156 168.378906 221.917969 C 169.535156 220.679688 170.539062 219.445312 171.773438 218.285156 C 172.234375 217.824219 173.160156 217.589844 173.777344 217.667969 C 175.78125 217.898438 177.785156 218.207031 179.558594 219.597656 C 180.253906 218.59375 181.023438 217.589844 181.5625 216.585938 C 182.257812 215.273438 181.484375 213.339844 180.328125 213.1875 C 179.636719 213.109375 178.863281 212.878906 178.171875 212.644531 C 174.164062 211.023438 170.152344 209.324219 166.144531 207.699219 C 165.375 207.390625 164.527344 207.082031 163.832031 206.851562 C 162.753906 208.703125 161.671875 210.558594 160.59375 212.335938 C 161.289062 212.566406 161.980469 212.722656 162.597656 212.953125 C 164.601562 213.726562 164.527344 214.730469 163.367188 216.199219 C 162.519531 217.359375 161.441406 218.363281 160.441406 219.445312 C 159.359375 220.605469 157.972656 220.992188 156.660156 220.21875 C 154.65625 219.058594 153.425781 219.910156 152.113281 221.300781 C 151.882812 221.53125 151.652344 221.6875 151.417969 221.917969 C 150.339844 222.921875 149.339844 223.847656 148.105469 225.007812 C 148.875 225.238281 149.339844 225.316406 149.800781 225.550781 C 150.648438 225.933594 151.265625 225.78125 152.035156 225.316406 C 152.808594 224.777344 153.730469 224.46875 154.65625 224.160156 C 154.964844 224.082031 155.738281 224.390625 155.738281 224.542969 C 155.8125 224.929688 155.582031 225.472656 155.351562 225.78125 C 155.121094 226.167969 154.425781 226.398438 153.730469 226.707031 Z M 78.488281 266.347656 C 78.71875 266.269531 78.796875 266.269531 78.949219 266.191406 C 81.957031 264.414062 85.042969 262.636719 88.046875 260.9375 C 88.820312 260.550781 88.511719 260.089844 88.433594 259.546875 C 86.507812 252.515625 84.578125 245.484375 82.726562 238.453125 C 82.652344 238.222656 82.574219 237.914062 82.421875 237.601562 C 79.257812 239.613281 76.253906 241.464844 73.246094 243.398438 C 73.015625 243.554688 72.9375 244.171875 73.015625 244.558594 C 73.398438 246.179688 73.785156 247.726562 74.246094 249.347656 C 75.636719 254.988281 77.023438 260.628906 78.488281 266.347656 Z M 101.617188 254.679688 C 98.222656 256.765625 95.0625 258.699219 91.824219 260.550781 C 91.132812 260.9375 90.976562 261.324219 91.207031 262.097656 C 92.980469 268.125 94.679688 274.074219 96.375 280.101562 C 96.527344 280.566406 96.683594 281.027344 96.835938 281.570312 C 100.304688 279.484375 103.621094 277.550781 106.9375 275.542969 C 107.167969 275.386719 107.246094 274.691406 107.167969 274.304688 C 106.164062 270.519531 105.085938 266.8125 104.007812 263.101562 C 103.234375 260.320312 102.464844 257.617188 101.617188 254.679688 Z M 71.085938 244.710938 C 67.925781 246.644531 64.996094 248.5 62.066406 250.351562 C 61.835938 250.507812 61.683594 251.203125 61.835938 251.589844 C 63.070312 256.535156 64.304688 261.554688 65.613281 266.5 C 66.152344 268.664062 66.691406 270.828125 67.234375 273.148438 C 70.238281 271.371094 73.089844 269.667969 76.019531 268.046875 C 76.792969 267.660156 76.871094 267.195312 76.636719 266.425781 C 75.636719 262.5625 74.632812 258.699219 73.632812 254.757812 C 72.785156 251.433594 72.011719 248.1875 71.085938 244.710938 Z M 89.203125 262.25 C 85.890625 264.261719 82.726562 266.191406 79.644531 268.046875 C 79.027344 268.433594 79.183594 268.820312 79.335938 269.359375 C 80.570312 274.230469 81.804688 279.171875 83.035156 284.042969 C 83.421875 285.664062 83.886719 287.285156 84.425781 288.988281 C 87.738281 287.054688 90.902344 285.125 94.136719 283.269531 C 94.832031 282.882812 94.988281 282.496094 94.753906 281.644531 C 93.367188 276.855469 92.058594 272.066406 90.746094 267.273438 C 90.128906 265.652344 89.667969 264.027344 89.203125 262.25 Z M 120.273438 267.738281 C 123.433594 265.960938 126.285156 264.261719 129.214844 262.636719 C 129.988281 262.25 130.140625 261.789062 129.910156 260.9375 C 128.136719 254.601562 126.441406 248.265625 124.667969 241.929688 C 124.589844 241.621094 124.511719 241.390625 124.359375 241.082031 C 124.128906 241.15625 124.050781 241.15625 123.898438 241.234375 C 120.8125 243.089844 117.730469 245.019531 114.570312 246.875 C 113.953125 247.261719 114.027344 247.648438 114.183594 248.1875 C 115.417969 252.128906 116.574219 256.148438 117.804688 260.089844 C 118.65625 262.5625 119.425781 265.035156 120.273438 267.738281 Z M 55.667969 279.636719 C 55.898438 279.558594 55.976562 279.558594 56.132812 279.558594 C 58.984375 277.9375 61.835938 276.238281 64.6875 274.613281 C 65.304688 274.230469 65.152344 273.84375 65.074219 273.300781 C 63.453125 266.425781 61.914062 259.546875 60.292969 252.671875 C 60.21875 252.363281 60.140625 252.050781 59.984375 251.667969 C 56.902344 253.519531 54.050781 255.375 51.042969 257.152344 C 50.425781 257.539062 50.582031 258.003906 50.65625 258.464844 C 51.8125 263.332031 52.894531 268.125 54.050781 272.992188 C 54.589844 275.15625 55.128906 277.398438 55.667969 279.636719 Z M 113.644531 246.101562 C 116.882812 244.25 119.964844 242.472656 123.046875 240.769531 C 123.898438 240.308594 124.128906 239.84375 123.898438 238.839844 C 122.664062 234.511719 121.582031 230.183594 120.425781 225.859375 C 120.273438 225.238281 119.964844 224.929688 119.347656 224.777344 C 117.496094 224.390625 115.648438 223.847656 113.796875 223.386719 C 113.335938 223.308594 112.71875 223.386719 112.253906 223.539062 C 110.945312 224.234375 109.710938 225.085938 108.402344 225.78125 C 107.707031 226.167969 107.476562 226.476562 107.785156 227.328125 C 108.941406 230.804688 110.019531 234.359375 111.175781 237.914062 C 112.023438 240.617188 112.796875 243.320312 113.644531 246.101562 Z M 83.269531 227.867188 C 83.421875 227.867188 83.5 227.945312 83.652344 227.945312 C 90.128906 229.027344 96.296875 228.175781 102.308594 225.78125 C 109.171875 223 115.183594 218.980469 120.042969 213.339844 C 121.738281 211.410156 123.664062 209.554688 125.207031 207.390625 C 133.609375 195.800781 138.46875 182.898438 139.625 168.679688 C 140.472656 158.171875 139.316406 147.894531 135.308594 138.003906 C 134.226562 135.300781 132.839844 132.75 131.605469 129.96875 C 131.375 130.277344 131.375 130.277344 131.375 130.355469 C 131.375 130.429688 131.453125 130.585938 131.453125 130.664062 C 137.386719 142.40625 139.085938 154.847656 137.773438 167.753906 C 136.539062 179.1875 132.992188 189.929688 127.132812 199.820312 C 122.355469 207.855469 116.417969 214.886719 108.632812 220.21875 C 103.160156 223.925781 97.300781 226.554688 90.667969 227.402344 C 88.277344 227.636719 85.8125 227.710938 83.269531 227.867188 Z M 155.660156 153.226562 C 158.125 155.003906 160.054688 157.089844 161.597656 159.5625 C 167.917969 169.453125 169.460938 180.039062 166.453125 191.394531 C 166.296875 192.09375 165.992188 193.097656 166.296875 193.40625 C 167.609375 194.875 166.914062 196.109375 166.222656 197.421875 C 165.449219 198.96875 164.601562 200.359375 163.753906 201.828125 C 164.757812 200.515625 166.066406 200.128906 167.53125 200.515625 C 168.6875 200.746094 169.304688 200.359375 169.84375 199.433594 C 170.152344 198.890625 170.460938 198.429688 170.691406 197.808594 C 172.3125 193.636719 173.699219 189.464844 173.855469 184.90625 C 173.929688 182.511719 173.929688 182.433594 171.617188 181.96875 C 170.382812 181.738281 169.769531 181.121094 169.613281 179.804688 C 169.304688 176.792969 169.152344 173.777344 168.535156 170.765625 C 168.070312 168.523438 169.152344 167.519531 170.769531 166.671875 C 170.847656 166.59375 170.925781 166.515625 171.15625 166.4375 C 168.535156 159.097656 163.832031 153.613281 157.355469 149.363281 C 156.738281 150.832031 156.199219 151.988281 155.660156 153.226562 Z M 77.410156 269.359375 C 74.402344 271.136719 71.550781 272.914062 68.695312 274.539062 C 67.925781 275 67.847656 275.464844 68.003906 276.238281 C 69.003906 280.179688 69.929688 284.117188 70.933594 288.136719 C 71.550781 290.609375 72.167969 293.082031 72.859375 295.710938 C 73.324219 295.476562 73.632812 295.324219 73.941406 295.089844 C 75.867188 293.933594 77.792969 292.851562 79.722656 291.691406 C 80.648438 291.152344 82.035156 290.765625 82.34375 289.914062 C 82.726562 289.0625 82.113281 287.75 81.804688 286.667969 C 80.339844 281.027344 78.875 275.308594 77.410156 269.359375 Z M 112.71875 248.035156 C 109.558594 249.964844 106.472656 251.742188 103.464844 253.675781 C 103.234375 253.828125 103.160156 254.449219 103.234375 254.757812 C 104.160156 257.847656 105.164062 260.859375 106.164062 263.953125 C 107.246094 267.273438 108.324219 270.597656 109.402344 274.074219 C 112.179688 272.453125 114.875 270.828125 117.574219 269.285156 C 118.269531 268.898438 118.347656 268.511719 118.191406 267.738281 C 117.035156 263.796875 115.957031 259.78125 114.875 255.839844 C 114.261719 253.289062 113.566406 250.738281 112.71875 248.035156 Z M 240.773438 139.316406 C 236.839844 141.710938 233.0625 144.03125 229.207031 146.425781 C 229.054688 146.503906 228.976562 147.042969 229.054688 147.277344 C 230.132812 150.519531 231.210938 153.765625 232.445312 157.011719 C 232.523438 157.320312 233.0625 157.550781 233.449219 157.628906 C 234.527344 157.785156 235.683594 157.707031 236.761719 157.9375 C 239.769531 158.632812 242.699219 159.40625 245.707031 160.101562 C 246.398438 160.257812 247.09375 160.410156 248.019531 160.644531 C 245.550781 153.378906 243.160156 146.425781 240.773438 139.316406 Z M 49.347656 258.15625 C 46.570312 259.933594 43.949219 261.554688 41.25 263.179688 C 40.558594 263.644531 40.328125 264.027344 40.558594 264.878906 C 41.636719 269.285156 42.640625 273.765625 43.71875 278.167969 C 44.335938 280.640625 44.875 283.113281 45.492188 285.664062 C 48.421875 283.964844 51.273438 282.34375 54.050781 280.71875 C 54.28125 280.566406 54.359375 280.023438 54.28125 279.714844 C 53.894531 277.859375 53.433594 276.003906 53.046875 274.152344 C 51.8125 268.820312 50.65625 263.566406 49.347656 258.15625 Z M 65.769531 276.390625 C 65.535156 276.46875 65.382812 276.546875 65.226562 276.625 C 62.453125 278.324219 59.675781 280.023438 56.824219 281.644531 C 56.207031 282.03125 56.285156 282.417969 56.363281 282.960938 C 57.289062 286.824219 58.210938 290.765625 59.214844 294.628906 C 59.832031 297.175781 60.601562 299.726562 61.375 302.355469 C 61.757812 302.121094 61.988281 302.046875 62.222656 301.890625 C 64.765625 300.421875 67.234375 298.878906 69.777344 297.488281 C 70.46875 297.101562 70.546875 296.636719 70.394531 295.941406 C 69.390625 291.921875 68.464844 287.90625 67.539062 283.964844 C 67 281.492188 66.382812 279.019531 65.769531 276.390625 Z M 39.324219 264.492188 C 38.863281 264.722656 38.554688 264.957031 38.167969 265.1875 C 35.855469 266.65625 33.621094 268.125 31.304688 269.515625 C 30.535156 269.980469 30.535156 270.363281 30.691406 271.136719 C 32 276.390625 33.234375 281.644531 34.46875 286.824219 C 34.851562 288.367188 35.160156 289.835938 35.546875 291.460938 C 38.398438 289.835938 41.097656 288.214844 43.796875 286.667969 C 44.027344 286.515625 44.179688 285.972656 44.105469 285.664062 C 43.332031 282.1875 42.484375 278.632812 41.714844 275.15625 C 40.941406 271.601562 40.09375 268.125 39.324219 264.492188 Z M 51.121094 308.535156 C 53.816406 306.992188 56.285156 305.523438 58.753906 304.054688 C 58.984375 303.898438 59.214844 303.28125 59.136719 302.972656 C 58.289062 298.492188 57.441406 294.085938 56.59375 289.605469 C 56.132812 287.363281 55.589844 285.199219 55.050781 282.882812 C 52.121094 284.660156 49.347656 286.28125 46.570312 288.058594 C 46.339844 288.214844 46.261719 288.753906 46.339844 289.0625 C 47.035156 292.15625 47.726562 295.167969 48.5 298.257812 C 49.347656 301.582031 50.195312 304.980469 51.121094 308.535156 Z M 44.953125 288.910156 C 42.175781 290.53125 39.632812 292.15625 37.089844 293.625 C 36.394531 294.007812 36.242188 294.394531 36.472656 295.167969 C 37.628906 300.035156 38.785156 304.980469 39.941406 309.925781 C 40.328125 311.394531 40.710938 312.941406 41.097656 314.5625 C 43.796875 312.941406 46.339844 311.472656 48.882812 309.925781 C 49.117188 309.773438 49.269531 309.152344 49.191406 308.84375 C 48.882812 307.144531 48.5 305.367188 48.113281 303.667969 C 47.109375 298.800781 46.03125 293.933594 44.953125 288.910156 Z M 26.0625 296.945312 C 28.683594 295.398438 31.074219 294.007812 33.464844 292.542969 C 33.695312 292.386719 33.851562 291.769531 33.773438 291.460938 C 32.847656 287.210938 31.847656 282.960938 30.921875 278.710938 C 30.304688 276.082031 29.765625 273.457031 29.148438 270.675781 C 26.679688 272.21875 24.367188 273.765625 21.976562 275.15625 C 21.363281 275.542969 21.285156 275.851562 21.4375 276.546875 C 22.363281 280.410156 23.289062 284.273438 24.136719 288.136719 C 24.90625 291.074219 25.449219 293.933594 26.0625 296.945312 Z M 31.382812 319.972656 C 33.773438 318.65625 35.699219 317.5 37.707031 316.417969 C 38.863281 315.875 39.09375 315.179688 38.785156 313.945312 C 37.628906 309.230469 36.625 304.441406 35.546875 299.726562 C 35.238281 298.183594 34.851562 296.714844 34.46875 295.089844 C 31.921875 296.636719 29.535156 298.027344 27.144531 299.574219 C 26.914062 299.726562 26.757812 300.34375 26.757812 300.65625 C 26.988281 302.046875 27.296875 303.4375 27.605469 304.828125 C 28.917969 309.847656 30.148438 314.71875 31.382812 319.972656 Z M 133.996094 222.691406 C 134.765625 222.84375 135.230469 222.921875 135.691406 223 C 140.242188 223.539062 143.789062 221.144531 147.023438 218.519531 C 152.34375 214.269531 156.507812 208.9375 160.285156 203.375 C 161.902344 200.976562 163.292969 198.503906 164.679688 195.957031 C 165.296875 194.875 164.757812 194.023438 163.601562 193.714844 C 162.675781 193.484375 161.75 193.25 160.824219 193.171875 C 159.4375 192.941406 159.050781 193.171875 158.589844 194.488281 C 158.28125 195.261719 158.050781 195.957031 157.742188 196.652344 C 152.960938 207.855469 145.636719 216.816406 134.535156 222.304688 C 134.457031 222.304688 134.304688 222.382812 133.996094 222.691406 Z M 258.65625 184.675781 C 258.734375 184.828125 258.8125 184.984375 258.890625 185.136719 C 259.273438 184.984375 259.582031 184.828125 259.96875 184.675781 C 262.820312 183.207031 265.671875 181.660156 268.527344 180.191406 C 270.300781 179.265625 270.375 179.1875 269.757812 177.257812 C 267.523438 170.300781 265.289062 163.269531 263.050781 156.316406 C 262.976562 156.007812 262.820312 155.699219 262.667969 155.390625 C 258.964844 157.550781 255.417969 159.714844 251.796875 161.878906 C 259.429688 165.664062 265.210938 171.382812 269.757812 178.261719 C 265.90625 180.425781 262.28125 182.585938 258.65625 184.675781 Z M 155.890625 233.507812 C 155.890625 233.585938 155.890625 233.664062 155.890625 233.664062 C 156.351562 233.738281 156.816406 233.816406 157.277344 233.894531 C 160.824219 234.203125 164.292969 234.046875 167.761719 233.121094 C 171.617188 232.117188 174.703125 229.800781 177.707031 227.480469 C 184.492188 222.226562 189.351562 215.425781 191.894531 207.160156 C 192.894531 203.835938 193.746094 200.4375 194.59375 197.113281 C 194.976562 195.722656 194.976562 195.722656 193.4375 195.414062 C 193.28125 196.1875 193.128906 197.035156 193.050781 197.808594 C 192.433594 201.597656 191.429688 205.304688 188.808594 208.316406 C 188.195312 209.015625 187.578125 209.324219 186.652344 209.167969 C 186.035156 209.015625 185.496094 208.859375 184.957031 208.628906 C 181.023438 207.082031 177.09375 205.460938 173.160156 203.992188 C 171.617188 203.375 170.152344 202.367188 168.378906 202.753906 C 168.148438 202.832031 167.917969 202.675781 167.761719 202.601562 C 166.683594 202.058594 166.144531 202.601562 165.757812 203.605469 C 166.605469 203.914062 167.453125 204.222656 168.304688 204.453125 C 172.464844 205.769531 176.628906 207.003906 180.714844 208.394531 C 182.027344 208.859375 183.335938 209.710938 184.339844 210.714844 C 186.113281 212.335938 186.1875 215.503906 184.722656 217.4375 C 184.183594 218.132812 183.414062 218.59375 182.875 219.367188 C 180.019531 223.386719 176.476562 226.707031 172.464844 229.566406 C 168.765625 232.195312 164.527344 233.585938 159.976562 233.585938 C 158.667969 233.507812 157.277344 233.507812 155.890625 233.507812 Z M 184.492188 235.671875 C 186.652344 236.210938 188.808594 236.210938 191.046875 235.902344 C 194.976562 235.285156 198.136719 233.121094 201.066406 230.648438 C 207.621094 225.007812 211.089844 217.511719 213.558594 209.476562 C 213.789062 208.628906 214.25 207.855469 214.789062 206.695312 C 213.941406 203.992188 212.941406 200.976562 211.863281 197.578125 C 211.628906 199.046875 211.398438 200.28125 211.320312 201.441406 C 210.859375 210.636719 207.621094 218.75 201.683594 225.703125 C 197.058594 230.957031 191.738281 234.976562 184.492188 235.671875 Z M 227.589844 147.664062 C 227.433594 147.664062 227.28125 147.664062 227.28125 147.664062 C 223.8125 149.824219 220.265625 151.988281 216.796875 154.152344 C 216.640625 154.308594 216.410156 154.695312 216.488281 154.847656 C 217.027344 156.703125 217.644531 158.632812 218.261719 160.566406 C 222.269531 158.480469 226.585938 157.9375 230.980469 157.785156 C 229.824219 154.230469 228.667969 150.90625 227.589844 147.664062 Z M 164.292969 191.164062 C 168.226562 183.128906 164.371094 162.113281 158.125 157.785156 C 162.90625 168.449219 162.828125 179.34375 159.976562 190.390625 C 161.441406 190.699219 162.828125 190.933594 164.292969 191.164062 Z M 120.660156 216.894531 C 121.042969 216.894531 121.277344 216.894531 121.582031 216.894531 C 126.671875 216.429688 131.144531 214.421875 135.074219 211.332031 C 148.335938 200.746094 154.273438 186.914062 152.574219 170.070312 C 151.882812 162.808594 148.566406 156.625 142.628906 152.066406 C 142.324219 151.835938 142.015625 151.601562 141.628906 151.292969 C 141.707031 152.53125 141.707031 152.53125 142.476562 152.917969 C 143.015625 153.226562 143.480469 153.535156 143.941406 153.921875 C 146.5625 156.007812 148.257812 158.867188 149.570312 161.957031 C 152.5 169.21875 152.574219 176.636719 150.878906 184.132812 C 148.644531 194.023438 144.09375 202.675781 136.230469 209.324219 C 132.378906 212.566406 127.984375 214.964844 122.894531 215.351562 C 121.890625 215.582031 121.277344 216.046875 120.660156 216.894531 Z M 203.535156 162.960938 C 203.613281 163.039062 203.6875 163.117188 203.765625 163.191406 C 204.074219 162.960938 204.460938 162.808594 204.769531 162.574219 C 206.773438 161.261719 207.160156 161.261719 209.007812 162.730469 C 209.472656 163.117188 209.855469 163.578125 210.398438 163.890625 C 210.78125 164.121094 211.398438 164.351562 211.707031 164.199219 C 213.328125 163.503906 214.789062 162.652344 216.332031 161.800781 C 216.488281 161.726562 216.71875 161.339844 216.640625 161.183594 C 216.101562 159.253906 215.484375 157.320312 214.789062 155.234375 C 211.011719 157.628906 207.390625 159.871094 203.84375 162.1875 C 203.765625 162.265625 203.6875 162.652344 203.535156 162.960938 Z M 189.042969 179.730469 C 189.117188 180.113281 189.195312 180.425781 189.195312 180.8125 C 189.117188 181.890625 189.117188 183.050781 188.886719 184.132812 C 188.578125 185.371094 187.960938 185.601562 186.804688 185.058594 C 183.335938 183.515625 179.867188 181.96875 176.320312 180.425781 C 174.546875 179.652344 174.394531 179.265625 174.316406 177.410156 C 174.238281 175.710938 174.007812 174.089844 173.699219 172.386719 C 173.621094 172.078125 172.851562 171.617188 172.542969 171.691406 C 171.925781 171.847656 170.847656 171.925781 170.925781 172.929688 C 171.078125 175.246094 171.386719 177.566406 171.695312 179.882812 C 172.542969 180.191406 173.46875 180.5 174.394531 180.886719 C 174.933594 181.121094 175.472656 181.582031 176.011719 181.816406 C 180.253906 183.667969 184.492188 185.445312 188.808594 187.222656 C 189.351562 187.457031 189.8125 187.765625 190.429688 188.152344 C 190.273438 185.136719 190.660156 182.277344 189.042969 179.730469 Z M 186.652344 183.980469 C 186.882812 182.355469 186.574219 180.578125 185.339844 178.648438 C 184.878906 177.953125 183.875 177.640625 183.105469 177.179688 C 182.71875 176.945312 182.335938 176.792969 181.871094 176.5625 C 180.097656 175.710938 178.324219 174.785156 176.550781 173.933594 C 176.550781 175.324219 176.707031 176.636719 176.476562 177.953125 C 176.320312 178.957031 176.628906 179.265625 177.398438 179.652344 C 180.175781 180.964844 182.949219 182.355469 185.804688 183.667969 C 186.113281 183.746094 186.421875 183.902344 186.652344 183.980469 Z M 124.667969 225.085938 C 125.902344 227.636719 127.210938 230.183594 128.523438 232.890625 C 130.835938 229.566406 133.84375 227.25 137.078125 225.164062 C 137.003906 225.085938 136.925781 225.085938 136.847656 225.085938 C 134.765625 225.238281 132.6875 225.164062 130.757812 224.003906 C 130.605469 223.925781 130.371094 223.925781 130.21875 223.925781 C 128.367188 224.234375 126.519531 224.699219 124.667969 225.085938 Z M 158.898438 235.128906 C 160.363281 236.445312 161.671875 237.21875 163.601562 236.90625 C 169.613281 236.058594 175.242188 234.203125 179.789062 229.953125 C 180.945312 228.871094 182.101562 227.789062 183.257812 226.707031 C 182.257812 225.9375 181.5625 225.859375 180.792969 226.632812 C 178.09375 229.335938 174.777344 231.113281 171.464844 232.96875 C 170.308594 233.585938 169.074219 233.972656 167.761719 234.28125 C 164.988281 235.128906 162.058594 235.671875 158.898438 235.128906 Z M 230.980469 199.507812 C 231.136719 199.507812 231.210938 199.433594 231.367188 199.433594 C 231.289062 199.046875 231.289062 198.738281 231.210938 198.351562 C 230.210938 195.183594 229.207031 192.09375 228.207031 188.921875 C 225.585938 180.734375 222.886719 172.542969 220.1875 164.429688 C 220.109375 164.121094 219.492188 163.65625 219.183594 163.734375 C 218.492188 163.890625 218.644531 164.429688 218.800781 164.96875 C 219.417969 166.59375 220.035156 168.214844 220.648438 169.914062 C 223.886719 179.417969 227.125 188.921875 230.363281 198.351562 C 230.519531 198.738281 230.75 199.125 230.980469 199.507812 Z M 130.0625 234.28125 C 131.375 234.976562 132.378906 234.667969 133.378906 233.199219 C 133.765625 232.582031 134.304688 231.960938 134.765625 231.421875 C 137.3125 228.332031 140.242188 227.480469 143.941406 229.027344 C 145.484375 229.644531 146.410156 229.179688 147.488281 228.175781 C 146.023438 227.636719 144.710938 227.015625 143.246094 226.554688 C 140.394531 225.625 137.773438 226.011719 135.613281 228.253906 C 133.6875 230.261719 131.835938 232.347656 130.0625 234.28125 Z M 201.609375 205.613281 C 203.996094 200.976562 203.535156 186.605469 201.222656 183.667969 C 201.222656 185.523438 201.144531 187.53125 201.222656 189.621094 C 201.300781 191.628906 201.609375 193.558594 201.53125 195.492188 C 201.375 198.660156 200.453125 201.671875 199.140625 204.609375 C 199.910156 204.996094 200.683594 205.304688 201.609375 205.613281 Z M 191.894531 212.183594 C 193.359375 212.800781 194.746094 213.417969 196.132812 213.957031 C 196.367188 214.035156 196.828125 213.882812 196.980469 213.726562 C 197.984375 212.027344 198.988281 210.328125 199.988281 208.550781 C 197.90625 208.007812 195.980469 207.46875 194.050781 206.925781 C 193.28125 208.703125 192.585938 210.40625 191.894531 212.183594 Z M 229.515625 211.5625 C 230.132812 218.980469 228.128906 225.394531 223.734375 231.265625 C 225.277344 231.191406 226.046875 230.261719 226.816406 229.257812 C 230.054688 225.007812 231.75 220.21875 230.980469 214.808594 C 230.828125 213.648438 230.441406 212.566406 229.515625 211.5625 Z M 189.734375 228.253906 C 189.8125 228.175781 189.890625 228.023438 189.964844 227.945312 C 189.351562 227.558594 188.734375 227.09375 188.195312 226.707031 C 186.882812 225.78125 186.804688 225.164062 187.730469 223.773438 C 188.117188 223.230469 188.425781 222.765625 188.808594 222.226562 C 190.042969 220.527344 191.355469 218.902344 192.585938 217.203125 C 191.664062 216.816406 190.738281 216.507812 190.121094 216.277344 C 187.808594 219.136719 185.648438 221.761719 183.492188 224.46875 C 185.648438 225.316406 187.421875 227.171875 189.734375 228.253906 Z M 195.75 193.945312 C 196.75 194.796875 196.90625 195.957031 196.671875 197.269531 C 196.519531 198.117188 196.289062 198.96875 196.132812 199.820312 C 195.824219 201.054688 195.515625 202.292969 195.285156 203.605469 C 196.289062 203.757812 197.058594 203.992188 197.90625 204.144531 C 199.296875 200.976562 200.066406 195.183594 199.527344 192.941406 C 198.214844 193.25 197.058594 193.558594 195.75 193.945312 Z M 174.085938 200.28125 C 174.625 198.503906 175.242188 196.804688 175.550781 195.105469 C 176.089844 191.859375 176.476562 188.613281 177.015625 185.371094 C 177.246094 183.667969 177.246094 183.59375 175.394531 183.128906 C 175.78125 188.847656 174.703125 194.332031 172.621094 199.742188 C 173.082031 199.894531 173.546875 200.128906 174.085938 200.28125 Z M 81.726562 230.339844 C 82.265625 231.960938 82.804688 233.664062 83.421875 235.515625 C 86.121094 233.972656 88.664062 232.503906 91.285156 231.035156 C 88.046875 230.804688 84.964844 230.570312 81.726562 230.339844 Z M 178.324219 221.144531 C 176.859375 220.527344 175.550781 219.984375 174.238281 219.445312 C 174.007812 219.367188 173.699219 219.289062 173.546875 219.445312 C 172.390625 220.449219 171.234375 221.609375 170 222.691406 C 171.308594 223.386719 172.464844 224.082031 173.699219 224.699219 C 173.929688 224.855469 174.316406 224.929688 174.46875 224.777344 C 175.78125 223.539062 177.015625 222.382812 178.324219 221.144531 Z M 185.417969 204.839844 C 186.113281 205.226562 186.652344 204.917969 186.882812 204.070312 C 188.039062 200.746094 189.195312 197.347656 190.199219 194.023438 C 190.507812 193.097656 190.429688 192.09375 190.273438 191.164062 C 190.199219 190.546875 189.660156 190.003906 189.273438 189.308594 C 188.734375 192.167969 188.425781 194.71875 187.808594 197.269531 C 187.191406 199.742188 186.265625 202.214844 185.417969 204.839844 Z M 243.777344 191.472656 C 243.855469 191.472656 243.855469 191.472656 243.933594 191.394531 C 243.703125 190.699219 243.46875 190.082031 243.238281 189.386719 C 240 179.652344 236.761719 169.914062 233.523438 160.179688 C 233.371094 159.640625 233.214844 159.019531 232.523438 159.40625 C 232.292969 159.5625 232.214844 160.335938 232.367188 160.71875 C 233.757812 164.507812 235.222656 168.214844 236.609375 171.925781 C 239.074219 178.492188 241.386719 184.984375 243.777344 191.472656 Z M 210.550781 230.339844 C 209.007812 229.722656 207.621094 229.179688 206.234375 228.640625 C 206.078125 228.5625 205.847656 228.5625 205.695312 228.71875 C 204.382812 229.875 203.148438 231.113281 201.761719 232.425781 C 202.917969 232.8125 203.921875 233.199219 205 233.507812 C 205.230469 233.585938 205.539062 233.507812 205.695312 233.429688 C 207.3125 232.347656 208.855469 231.34375 210.550781 230.339844 Z M 183.722656 186.992188 C 183.875 192.632812 182.875 197.964844 180.40625 202.988281 C 180.945312 203.21875 181.332031 203.375 181.949219 203.605469 C 182.644531 201.285156 183.414062 199.046875 183.800781 196.804688 C 184.339844 194.023438 184.492188 191.242188 184.878906 188.460938 C 185.109375 187.609375 184.800781 187.148438 183.722656 186.992188 Z M 256.5 185.214844 C 256.652344 185.214844 256.808594 185.136719 256.882812 185.136719 C 256.730469 184.519531 256.574219 183.902344 256.421875 183.28125 C 254.339844 176.871094 252.335938 170.457031 250.253906 164.042969 C 250.175781 163.734375 249.792969 163.578125 249.484375 163.269531 C 249.484375 163.65625 249.253906 164.042969 249.40625 164.351562 C 251.101562 169.53125 252.875 174.707031 254.570312 179.882812 C 255.1875 181.660156 255.882812 183.4375 256.5 185.214844 Z M 179.558594 184.90625 C 178.632812 190.390625 177.167969 195.644531 175.394531 200.902344 C 175.703125 201.054688 176.167969 201.210938 176.628906 201.441406 C 177.09375 200.050781 177.554688 198.8125 177.941406 197.578125 C 179.019531 193.792969 179.945312 190.003906 179.867188 185.988281 C 179.789062 185.601562 179.636719 185.214844 179.558594 184.90625 Z M 160.980469 231.5 C 160.980469 231.421875 160.980469 231.34375 161.054688 231.265625 C 158.28125 230.339844 155.429688 229.335938 152.652344 228.40625 C 152.5 228.332031 152.191406 228.40625 152.035156 228.484375 C 151.109375 229.027344 150.1875 229.566406 149.183594 230.183594 C 149.878906 230.726562 150.570312 231.578125 151.574219 230.957031 C 152.5 230.417969 153.191406 230.648438 153.964844 231.035156 C 154.347656 231.191406 154.734375 231.5 155.042969 231.5 C 157.046875 231.578125 159.050781 231.5 160.980469 231.5 Z M 159.746094 213.417969 C 158.433594 215.039062 157.125 216.507812 155.890625 218.054688 C 156.738281 218.363281 157.511719 218.75 158.28125 218.980469 C 158.511719 219.058594 158.976562 218.980469 159.128906 218.828125 C 160.207031 217.4375 161.289062 215.96875 162.289062 214.65625 C 162.210938 214.5 162.210938 214.421875 162.136719 214.421875 C 161.363281 214.035156 160.59375 213.726562 159.746094 213.417969 Z M 181.871094 186.066406 C 181.179688 191.472656 180.714844 196.960938 177.785156 201.90625 C 178.25 202.136719 178.710938 202.292969 179.171875 202.523438 C 181.332031 197.191406 182.644531 191.78125 181.871094 186.066406 Z M 173.855469 235.902344 C 176.476562 235.824219 185.339844 231.035156 187.035156 228.5625 C 186.113281 227.867188 185.339844 227.636719 184.414062 228.792969 C 183.566406 229.875 182.488281 230.804688 181.332031 231.5 C 178.789062 233.121094 176.089844 234.589844 173.855469 235.902344 Z M 222.5 177.71875 C 222.421875 177.640625 222.421875 177.488281 222.347656 177.410156 C 221.960938 177.488281 221.574219 177.488281 221.265625 177.640625 C 217.953125 179.1875 214.558594 180.734375 211.246094 182.433594 C 210.9375 182.585938 210.859375 183.207031 210.628906 183.59375 C 211.089844 183.59375 211.628906 183.824219 212.015625 183.59375 C 215.253906 181.890625 218.414062 180.113281 221.574219 178.339844 C 221.960938 178.105469 222.191406 177.875 222.5 177.71875 Z M 186.960938 188.382812 C 186.882812 188.460938 186.804688 188.460938 186.652344 188.539062 C 186.265625 193.867188 185.726562 199.199219 182.949219 204.144531 C 183.414062 204.300781 183.800781 204.453125 184.183594 204.609375 C 185.804688 200.128906 187.269531 195.800781 187.035156 191.085938 C 187.035156 190.546875 187.191406 190.003906 187.191406 189.464844 C 187.191406 189 187.035156 188.691406 186.960938 188.382812 Z M 145.40625 191.628906 C 148.027344 188.074219 149.105469 183.980469 149.414062 179.730469 C 149.261719 179.652344 149.03125 179.652344 148.875 179.574219 C 147.796875 183.59375 146.640625 187.609375 145.40625 191.628906 Z M 157.277344 235.054688 C 156.429688 235.054688 155.660156 235.054688 154.890625 235.054688 C 154.039062 234.976562 153.578125 234.511719 153.578125 233.664062 C 153.578125 233.351562 153.65625 232.96875 153.5 232.8125 C 153.269531 232.503906 152.960938 232.117188 152.574219 232.039062 C 152.34375 232.039062 151.804688 232.347656 151.726562 232.65625 C 151.265625 234.433594 151.804688 235.363281 153.5 235.980469 C 153.808594 236.058594 154.117188 236.136719 154.503906 236.289062 C 156.277344 236.832031 156.277344 236.832031 157.277344 235.363281 C 157.355469 235.285156 157.277344 235.207031 157.277344 235.054688 Z M 234.140625 170.996094 C 234.066406 170.84375 233.988281 170.765625 233.910156 170.609375 C 233.601562 170.765625 233.292969 170.84375 232.984375 170.996094 C 230.363281 172.386719 227.820312 173.855469 225.277344 175.246094 C 224.96875 175.402344 224.8125 175.941406 224.582031 176.328125 C 224.96875 176.328125 225.507812 176.484375 225.816406 176.25 C 228.359375 174.707031 230.828125 173.160156 233.371094 171.617188 C 233.679688 171.460938 233.910156 171.230469 234.140625 170.996094 Z M 182.101562 212.257812 C 181.332031 210.558594 180.871094 210.019531 179.019531 209.398438 C 176.320312 208.550781 173.621094 207.777344 170.847656 207.003906 C 170.230469 206.851562 169.613281 206.695312 168.917969 206.542969 C 168.917969 206.617188 168.84375 206.695312 168.84375 206.851562 C 169.226562 207.003906 169.613281 207.160156 170.078125 207.3125 C 173.160156 208.394531 176.167969 209.476562 179.25 210.636719 C 180.175781 210.945312 181.101562 211.71875 182.101562 212.257812 Z M 233.140625 199.277344 C 233.140625 199.355469 233.214844 199.355469 233.214844 199.433594 C 233.292969 199.433594 233.449219 199.433594 233.523438 199.355469 C 236.839844 197.65625 240.15625 195.957031 243.46875 194.179688 C 243.703125 194.023438 243.855469 193.558594 244.007812 193.25 C 243.703125 193.25 243.238281 193.171875 243.007812 193.25 C 241.3125 194.179688 239.691406 195.183594 238.074219 196.1875 C 236.453125 197.269531 234.835938 198.273438 233.140625 199.277344 Z M 247.480469 163.734375 C 247.402344 163.65625 247.402344 163.578125 247.324219 163.578125 C 247.171875 163.65625 246.9375 163.65625 246.785156 163.734375 C 243.855469 165.203125 240.925781 166.746094 238.074219 168.214844 C 237.84375 168.371094 237.6875 168.832031 237.535156 169.144531 C 237.917969 169.144531 238.382812 169.296875 238.691406 169.144531 C 241.464844 167.519531 244.164062 165.820312 246.9375 164.121094 C 247.09375 164.042969 247.246094 163.890625 247.480469 163.734375 Z M 218.722656 208.007812 C 218.722656 208.085938 218.800781 208.085938 218.800781 208.164062 C 218.953125 208.085938 219.03125 208.085938 219.183594 208.007812 C 222.964844 205.921875 226.816406 203.757812 230.59375 201.671875 C 230.828125 201.597656 231.058594 201.441406 231.136719 201.285156 C 231.210938 201.132812 231.289062 200.902344 231.210938 200.746094 C 231.210938 200.667969 230.902344 200.589844 230.75 200.667969 C 230.519531 200.746094 230.285156 200.902344 230.054688 201.054688 C 226.507812 203.21875 222.964844 205.382812 219.492188 207.546875 C 219.261719 207.699219 218.953125 207.855469 218.722656 208.007812 Z M 245.472656 192.476562 C 245.472656 192.554688 245.550781 192.632812 245.550781 192.710938 C 245.628906 192.710938 245.78125 192.710938 245.859375 192.710938 C 249.484375 190.699219 253.03125 188.691406 256.652344 186.683594 C 256.882812 186.527344 256.960938 186.140625 257.039062 185.910156 C 256.730469 185.910156 256.34375 185.832031 256.113281 185.910156 C 253.03125 187.765625 249.945312 189.695312 246.863281 191.628906 C 246.398438 191.9375 245.9375 192.246094 245.472656 192.476562 Z M 192.820312 219.597656 C 191.972656 220.757812 191.199219 221.839844 190.429688 223 C 192.28125 224.082031 192.28125 224.082031 193.4375 222.457031 C 193.511719 222.382812 193.589844 222.304688 193.589844 222.148438 C 194.667969 220.605469 194.667969 220.605469 192.820312 219.597656 Z M 145.636719 181.042969 C 144.867188 183.515625 144.09375 185.753906 143.941406 188.304688 C 145.484375 187.457031 146.640625 182.664062 145.636719 181.042969 Z M 141.78125 186.683594 C 143.402344 185.753906 144.019531 182.972656 143.09375 180.964844 C 142.476562 182.898438 141.550781 184.519531 141.78125 186.683594 Z M 200.453125 206.925781 C 200.527344 207.46875 200.835938 208.085938 200.683594 208.472656 C 199.910156 210.328125 198.988281 212.105469 198.214844 213.957031 C 197.675781 215.273438 196.75 215.890625 195.210938 215.890625 C 196.828125 216.507812 197.136719 216.429688 197.90625 215.195312 C 198.214844 214.730469 198.601562 214.269531 198.832031 213.804688 C 199.835938 211.71875 200.835938 209.554688 201.839844 207.390625 C 201.144531 207.082031 200.683594 206.925781 200.453125 206.925781 Z M 139.625 185.832031 C 140.78125 184.597656 141.472656 182.046875 140.859375 181.195312 C 139.855469 182.511719 139.316406 184.519531 139.625 185.832031 Z M 184.570312 237.527344 C 184.339844 238.453125 184.722656 238.839844 185.570312 238.839844 C 186.421875 238.839844 187.191406 238.917969 188.117188 238.992188 C 188.117188 238.609375 188.195312 238.296875 188.195312 237.988281 C 186.882812 237.757812 185.726562 237.679688 184.570312 237.527344 Z M 190.738281 214.113281 C 190.660156 214.269531 190.660156 214.421875 190.582031 214.578125 C 191.585938 214.886719 192.664062 215.273438 193.667969 215.582031 C 193.667969 215.503906 193.746094 215.425781 193.746094 215.273438 C 192.820312 214.886719 191.816406 214.5 190.738281 214.113281 Z M 190.738281 214.113281 " fill-opacity="1" fill-rule="nonzero"/></g><path fill="#000000" d="M 56.515625 181.121094 C 56.59375 173.703125 57.441406 167.675781 59.058594 161.800781 C 59.523438 160.257812 59.753906 158.632812 60.140625 157.089844 C 60.679688 155.234375 61.914062 153.613281 62.914062 151.910156 C 63.453125 150.984375 64.226562 150.289062 64.6875 149.363281 C 70.085938 140.167969 76.714844 132.132812 85.425781 125.871094 C 90.59375 122.164062 96.144531 119.535156 102.542969 118.765625 C 105.855469 118.378906 109.09375 118.53125 112.253906 119.691406 C 117.496094 121.621094 121.738281 124.789062 124.976562 129.425781 C 128.058594 133.910156 130.296875 138.699219 131.605469 143.953125 C 131.761719 144.496094 132.222656 144.957031 132.53125 145.5 C 132.761719 145.960938 133.300781 146.503906 133.148438 146.96875 C 132.761719 148.898438 133.300781 150.675781 133.535156 152.53125 C 134.226562 157.628906 134.148438 162.808594 133.6875 167.90625 C 132.53125 180.5 128.136719 191.9375 120.8125 202.214844 C 115.726562 209.398438 109.402344 215.351562 101.386719 219.136719 C 93.136719 223 84.65625 223.464844 76.253906 219.445312 C 70.316406 216.585938 65.921875 211.949219 62.761719 206.230469 C 59.601562 200.589844 57.902344 194.5625 57.132812 188.226562 C 56.824219 185.371094 56.59375 182.511719 56.515625 181.121094 Z M 73.089844 165.355469 C 73.554688 166.050781 74.015625 166.824219 74.480469 167.519531 C 83.730469 181.507812 93.058594 195.570312 102.308594 209.554688 C 102.925781 210.480469 103.160156 211.949219 104.777344 212.027344 C 104.855469 212.027344 105.085938 212.257812 105.085938 212.335938 C 105.085938 212.953125 105.238281 213.648438 105.007812 214.269531 C 104.625 215.117188 103.773438 215.582031 102.851562 215.273438 C 102.308594 215.117188 101.925781 214.578125 101.539062 214.113281 C 101.152344 213.648438 101.078125 212.953125 100.691406 212.492188 C 99.613281 211.023438 98.457031 209.632812 97.453125 208.164062 C 88.355469 195.105469 79.257812 182.046875 70.160156 168.988281 C 69.46875 168.0625 68.929688 167.132812 67.539062 167.675781 C 67.308594 167.753906 66.925781 167.753906 66.617188 167.675781 C 65.84375 167.519531 65.613281 167.828125 65.460938 168.601562 C 64.457031 174.320312 63.453125 180.113281 62.375 185.832031 C 62.066406 187.6875 61.605469 189.542969 61.21875 191.472656 C 61.527344 191.472656 61.835938 191.472656 61.988281 191.550781 C 62.375 191.78125 62.992188 191.9375 63.070312 192.324219 C 63.144531 192.710938 62.914062 193.25 62.605469 193.558594 C 62.296875 193.945312 61.757812 194.101562 61.296875 194.332031 C 60.757812 194.488281 60.21875 194.5625 59.675781 194.71875 C 61.527344 201.519531 64.535156 207.546875 69.390625 212.566406 C 71.859375 215.117188 74.710938 217.125 78.027344 218.519531 C 85.425781 221.761719 92.75 221.144531 99.996094 218.132812 C 107.9375 214.886719 114.183594 209.398438 119.195312 202.523438 C 129.0625 188.921875 133.609375 173.546875 133.070312 156.78125 C 132.992188 154.308594 132.609375 151.910156 132.300781 149.363281 C 131.375 149.285156 130.605469 149.054688 129.910156 149.207031 C 122.972656 150.519531 116.03125 151.910156 109.09375 153.226562 C 98.300781 155.3125 87.429688 157.320312 76.636719 159.328125 C 76.328125 159.40625 75.945312 159.714844 75.945312 160.023438 C 75.789062 162.1875 74.632812 163.734375 73.089844 165.355469 Z M 76.097656 154.308594 C 76.097656 154.308594 76.328125 154.382812 76.636719 154.308594 C 86.660156 152.683594 96.683594 151.140625 106.78125 149.515625 C 114.335938 148.359375 121.890625 147.199219 129.449219 146.039062 C 130.296875 145.886719 130.835938 145.191406 130.605469 144.417969 C 130.296875 143.335938 129.910156 142.175781 129.523438 141.09375 C 127.367188 134.757812 124.28125 129.039062 119.117188 124.636719 C 114.183594 120.464844 108.476562 119.226562 102.234375 119.84375 C 97.144531 120.386719 92.671875 122.472656 88.433594 125.175781 C 88.277344 125.253906 88.203125 125.410156 88.203125 125.332031 C 88.820312 126.566406 89.4375 127.574219 89.898438 128.730469 C 90.050781 129.039062 89.820312 129.734375 89.589844 129.890625 C 89.28125 130.121094 88.664062 130.046875 88.277344 129.96875 C 88.046875 129.96875 87.894531 129.734375 87.664062 129.582031 C 82.804688 136.535156 77.949219 143.488281 73.324219 150.210938 C 74.324219 151.601562 75.171875 152.917969 76.097656 154.308594 Z M 66.074219 149.363281 C 66.847656 149.207031 67.234375 149.054688 67.695312 149.054688 C 69.238281 149.207031 70.085938 148.28125 70.933594 147.199219 C 75.636719 140.941406 80.414062 134.679688 85.195312 128.421875 C 85.425781 128.191406 85.503906 127.804688 85.582031 127.496094 C 85.503906 127.417969 85.351562 127.417969 85.273438 127.339844 C 77.5625 133.367188 71.550781 140.941406 66.074219 149.363281 Z M 130.527344 146.96875 C 130.296875 146.96875 130.0625 146.96875 129.910156 146.96875 C 115.339844 149.4375 100.769531 151.910156 86.199219 154.382812 C 82.574219 155.003906 78.949219 155.621094 75.40625 156.238281 C 74.789062 156.316406 74.246094 156.546875 74.710938 157.476562 C 93.367188 154.308594 112.023438 151.214844 130.679688 148.046875 C 130.605469 147.585938 130.605469 147.277344 130.527344 146.96875 Z M 58.753906 189.15625 C 59.214844 185.988281 59.675781 183.128906 60.140625 180.347656 C 60.832031 176.097656 61.605469 171.769531 62.296875 167.519531 C 62.375 167.210938 62.375 166.824219 62.222656 166.59375 C 61.449219 165.433594 60.601562 164.273438 59.832031 163.191406 C 57.980469 168.988281 57.210938 184.363281 58.753906 189.15625 Z M 71.085938 165.203125 C 70.085938 165.664062 70.703125 166.128906 70.933594 166.4375 C 76.097656 174.011719 81.339844 181.582031 86.507812 189.15625 C 91.671875 196.804688 96.835938 204.53125 102.003906 212.183594 C 102.15625 212.414062 102.542969 212.566406 102.851562 212.722656 C 102.851562 212.644531 102.925781 212.566406 102.925781 212.492188 C 92.363281 196.804688 81.726562 181.042969 71.085938 165.203125 Z M 68.15625 150.832031 C 71.550781 152.839844 72.628906 155.3125 71.78125 158.632812 C 70.703125 162.730469 67.773438 164.816406 63.300781 164.738281 C 64.765625 165.976562 66.691406 166.128906 68.390625 165.203125 C 71.550781 163.347656 73.707031 159.253906 73.015625 155.542969 C 72.476562 152.683594 71.011719 150.675781 68.15625 150.832031 Z M 61.835938 160.101562 C 62.605469 161.726562 63.917969 162.421875 65.304688 161.878906 C 68.15625 160.875 69.777344 157.089844 68.542969 154.382812 C 67.773438 152.609375 65.921875 152.222656 64.304688 153.378906 C 66.460938 153.6875 67.464844 155.078125 67.078125 157.089844 C 66.460938 159.792969 64.609375 160.953125 61.835938 160.101562 Z M 70.933594 149.4375 C 71.703125 150.289062 71.933594 149.59375 72.167969 149.207031 C 77.023438 142.484375 81.878906 135.761719 86.660156 129.117188 C 86.738281 128.964844 86.738281 128.808594 86.8125 128.652344 C 86.738281 128.578125 86.660156 128.578125 86.582031 128.5 C 81.417969 135.53125 76.175781 142.484375 70.933594 149.4375 Z M 60.757812 186.375 C 60.757812 186.375 60.832031 186.375 60.832031 186.375 C 62.066406 180.347656 63.222656 174.242188 64.457031 168.214844 C 64.609375 167.441406 64.226562 167.367188 63.53125 167.441406 C 62.605469 173.777344 61.683594 180.039062 60.757812 186.375 Z M 66.074219 156.472656 C 66.074219 155.542969 65.535156 154.925781 64.765625 154.925781 C 63.6875 154.925781 62.296875 156.546875 62.53125 157.707031 C 62.605469 158.25 63.378906 158.867188 63.917969 159.019531 C 64.917969 159.328125 66.074219 157.785156 66.074219 156.472656 Z M 70.46875 155.15625 C 70.238281 159.175781 68.695312 161.957031 64.917969 163.269531 C 68.464844 163.191406 71.242188 159.175781 70.46875 155.15625 Z M 70.46875 155.15625 " fill-opacity="1" fill-rule="nonzero"/><path fill="#000000" d="M 220.417969 227.402344 C 220.496094 229.335938 217.644531 231.730469 216.023438 231.265625 C 215.023438 231.035156 214.097656 230.726562 213.171875 230.339844 C 212.246094 229.953125 212.015625 229.257812 212.632812 228.484375 C 213.480469 227.328125 214.328125 226.246094 215.332031 225.238281 C 215.714844 224.855469 216.5625 224.699219 217.027344 224.855469 C 218.105469 225.394531 219.109375 226.089844 220.109375 226.863281 C 220.339844 227.015625 220.417969 227.328125 220.417969 227.402344 Z M 213.632812 229.105469 C 217.257812 230.648438 216.101562 231.113281 218.492188 228.023438 C 218.644531 227.867188 218.722656 227.710938 218.878906 227.402344 C 217.953125 227.09375 217.105469 226.707031 216.488281 226.554688 C 215.484375 227.480469 214.558594 228.253906 213.632812 229.105469 Z M 213.632812 229.105469 " fill-opacity="1" fill-rule="nonzero"/><path fill="#000000" d="M 225.121094 212.800781 C 224.96875 213.726562 224.8125 214.730469 224.582031 215.660156 C 224.429688 216.355469 223.964844 216.585938 223.347656 216.972656 C 222.730469 217.359375 222.191406 218.75 222.421875 219.367188 C 222.886719 220.449219 222.730469 221.300781 222.191406 222.070312 C 221.574219 223 220.804688 223.847656 219.957031 224.699219 C 219.800781 224.929688 219.339844 224.855469 219.03125 224.929688 C 219.109375 224.621094 219.03125 224.234375 219.183594 224.003906 C 219.726562 223.078125 220.265625 222.226562 220.804688 221.300781 C 220.957031 221.066406 221.035156 220.757812 220.957031 220.449219 C 220.496094 218.441406 221.191406 216.816406 223.039062 215.582031 C 223.195312 215.425781 223.347656 215.195312 223.347656 214.964844 C 223.425781 213.726562 223.425781 212.492188 223.503906 211.253906 C 223.578125 210.789062 223.886719 210.40625 224.121094 210.019531 C 224.429688 210.40625 224.8125 210.789062 224.96875 211.253906 C 225.121094 211.71875 224.96875 212.183594 224.96875 212.722656 C 224.96875 212.800781 225.042969 212.800781 225.121094 212.800781 Z M 225.121094 212.800781 " fill-opacity="1" fill-rule="nonzero"/><path fill="#000000" d="M 167.761719 216.429688 C 167.609375 216.664062 167.53125 217.203125 167.148438 217.589844 C 166.53125 218.285156 165.835938 218.902344 165.066406 219.367188 C 164.757812 219.597656 163.984375 219.523438 163.675781 219.289062 C 163.367188 219.136719 163.214844 218.285156 163.367188 218.054688 C 164.0625 217.050781 164.832031 215.96875 165.835938 215.273438 C 166.683594 214.5 167.761719 215.117188 167.761719 216.429688 Z M 167.761719 216.429688 " fill-opacity="1" fill-rule="nonzero"/><path fill="#000000" d="M 163.984375 222.070312 C 164.910156 222.070312 165.527344 222.921875 165.066406 223.773438 C 164.449219 224.929688 163.445312 225.550781 162.210938 225.78125 C 161.519531 225.9375 161.132812 225.472656 161.132812 224.699219 C 161.289062 223.695312 163.0625 222.070312 163.984375 222.070312 Z M 163.984375 222.070312 " fill-opacity="1" fill-rule="nonzero"/><path fill="#000000" d="M 169.304688 216.816406 C 170.078125 216.816406 170.460938 217.4375 170.230469 218.207031 C 170 219.058594 168.457031 220.371094 167.609375 220.449219 C 166.992188 220.527344 166.605469 220.21875 166.605469 219.597656 C 166.453125 218.671875 168.304688 216.816406 169.304688 216.816406 Z M 169.304688 216.816406 " fill-opacity="1" fill-rule="nonzero"/><path fill="#000000" d="M 160.515625 220.679688 C 161.597656 220.679688 162.136719 221.53125 161.597656 222.148438 C 160.902344 222.84375 159.898438 223.464844 158.976562 223.773438 C 158.28125 224.003906 157.664062 223.152344 158.050781 222.457031 C 158.589844 221.53125 159.515625 220.835938 160.515625 220.679688 Z M 160.515625 220.679688 " fill-opacity="1" fill-rule="nonzero"/><path fill="#000000" d="M 100.691406 173.933594 C 99.535156 173.46875 98.378906 173.007812 97.222656 172.464844 C 96.757812 172.234375 96.296875 172 95.910156 171.691406 C 95.21875 171.230469 94.679688 170.535156 95.0625 169.683594 C 95.527344 168.757812 96.375 168.449219 97.375 168.679688 C 98.53125 168.910156 99.613281 169.375 100.691406 169.605469 C 101.078125 169.683594 101.695312 169.53125 102.078125 169.296875 C 103.234375 168.679688 104.316406 167.519531 105.703125 168.449219 C 106.394531 168.832031 106.9375 169.453125 107.398438 170.148438 C 107.9375 170.996094 107.9375 172 108.710938 172.851562 C 109.558594 173.777344 108.246094 175.789062 106.9375 175.941406 C 106.550781 176.019531 106.089844 176.175781 105.855469 176.484375 C 104.546875 177.71875 103.773438 177.953125 102.464844 177.410156 C 101.152344 176.871094 100.539062 175.632812 100.691406 173.933594 Z M 106.164062 173.703125 C 105.316406 174.707031 104.546875 175.710938 103.699219 176.636719 C 104.316406 176.40625 105.007812 176.097656 105.316406 175.632812 C 105.78125 175.09375 105.933594 174.320312 106.164062 173.703125 C 106.242188 173.160156 106.320312 172.699219 106.472656 172.15625 C 106.628906 171.230469 106.242188 170.378906 105.703125 170.148438 C 105.855469 171.230469 106.011719 172.464844 106.164062 173.703125 Z M 101.386719 173.238281 C 101.617188 172.851562 102.078125 172.542969 102.078125 172.15625 C 102.078125 171.769531 101.695312 171.230469 101.386719 171.074219 C 100.074219 170.6875 98.765625 170.378906 97.375 170.070312 C 97.144531 169.992188 96.835938 170.226562 96.605469 170.300781 C 96.757812 170.535156 96.914062 170.84375 97.144531 170.996094 C 98.222656 171.617188 99.304688 172.078125 100.460938 172.699219 C 100.691406 172.851562 100.921875 173.007812 101.386719 173.238281 Z M 103.542969 170.609375 C 104.160156 172.234375 103.621094 173.394531 102.003906 174.242188 C 102.308594 174.707031 102.617188 175.324219 102.851562 175.324219 C 103.234375 175.324219 103.699219 175.015625 104.007812 174.628906 C 104.855469 173.703125 105.085938 172.621094 104.929688 171.382812 C 104.855469 170.609375 104.546875 170.148438 103.542969 170.609375 Z M 103.542969 170.609375 " fill-opacity="1" fill-rule="nonzero"/><path fill="#000000" d="M 72.859375 209.710938 C 78.488281 208.316406 84.039062 206.925781 89.4375 205.613281 C 87.277344 207.699219 74.171875 211.175781 72.859375 209.710938 Z M 72.859375 209.710938 " fill-opacity="1" fill-rule="nonzero"/><path fill="#000000" d="M 81.726562 203.683594 C 79.492188 204.144531 77.332031 204.765625 75.097656 205.148438 C 73.554688 205.382812 71.933594 205.382812 70.394531 205.382812 C 70.085938 205.382812 69.699219 205.074219 69.390625 204.839844 C 69.699219 204.6875 70.007812 204.300781 70.316406 204.300781 C 73.785156 203.914062 77.332031 203.527344 80.800781 203.21875 C 81.109375 203.21875 81.339844 203.21875 81.648438 203.21875 C 81.726562 203.375 81.726562 203.527344 81.726562 203.683594 Z M 81.726562 203.683594 " fill-opacity="1" fill-rule="nonzero"/><path fill="#000000" d="M 94.988281 209.015625 C 94.679688 209.246094 94.445312 209.476562 94.136719 209.632812 C 90.902344 211.640625 87.429688 213.261719 83.730469 214.34375 C 83.421875 214.421875 83.035156 214.269531 82.652344 214.269531 C 82.882812 214.035156 83.113281 213.648438 83.5 213.496094 C 87.046875 211.949219 90.59375 210.480469 94.136719 209.015625 C 94.371094 208.9375 94.679688 208.859375 94.988281 208.78125 C 94.910156 208.859375 94.910156 208.9375 94.988281 209.015625 Z M 94.988281 209.015625 " fill-opacity="1" fill-rule="nonzero"/><path fill="#000000" d="M 68.390625 198.351562 C 70.316406 198.738281 72.320312 199.125 74.480469 199.585938 C 73.015625 200.746094 69.238281 200.050781 68.3125 198.738281 C 68.3125 198.582031 68.3125 198.429688 68.390625 198.351562 Z M 68.390625 198.351562 " fill-opacity="1" fill-rule="nonzero"/></svg>